<svg width="48" height="48" xmlns="http://www.w3.org/2000/svg" xmlns:svg="http://www.w3.org/2000/svg">
 <g class="layer">
  <title>back</title>
  <path stroke="#000000" id="svg_2" stroke-opacity="0" fill="#ffffff" d="m38.71096,5.00129l-29.45349,0c-2.32472,0 -4.20764,1.88292 -4.20764,4.20764l0,29.45349c0,2.32472 1.88292,4.20764 4.20764,4.20764l29.45349,0c2.32472,0 4.20764,-1.88292 4.20764,-4.20764l0,-29.45349c0,-2.32472 -1.88292,-4.20764 -4.20764,-4.20764z"/>
 </g>
 <g class="layer">
  <title>Layer 1</title>
  <path stroke="#010101" stroke-width="2" fill-opacity="0" fill="#000000" d="m38,6l-28,0c-2.21,0 -4,1.79 -4,4l0,28c0,2.21 1.79,4 4,4l28,0c2.21,0 4,-1.79 4,-4l0,-28c0,-2.21 -1.79,-4 -4,-4zm-20,28l-4,0l0,-14l4,0l0,14zm8,0l-4,0l0,-20l4,0l0,20zm8,0l-4,0l0,-8l4,0l0,8z" id="svg_1"/>
 </g>
</svg>
