<svg width="48" height="48" xmlns="http://www.w3.org/2000/svg" xmlns:svg="http://www.w3.org/2000/svg">
 <g display="inline" class="layer">
  <title>图层 2</title>
  <path stroke="#000000" id="svg_2" stroke-opacity="0" fill="#ffffff" d="m39.65442,26.1329c0.08439,-0.67512 0.14768,-1.36079 0.14768,-2.05701s-0.06329,-1.38189 -0.14768,-2.05701l4.46213,-3.49164c0.40085,-0.31646 0.51689,-0.8861 0.25317,-1.35024l-4.21951,-7.3103c-0.26372,-0.4536 -0.81226,-0.64348 -1.28695,-0.4536l-5.25329,2.1203c-1.08652,-0.83335 -2.27854,-1.54012 -3.56549,-2.07811l-0.79116,-5.59085c-0.09494,-0.49579 -0.52744,-0.8861 -1.05488,-0.8861l-8.43902,0c-0.52744,0 -0.95994,0.3903 -1.04433,0.8861l-0.79116,5.59085c-1.28695,0.53799 -2.47896,1.23421 -3.56549,2.07811l-5.25329,-2.1203c-0.47469,-0.17933 -1.02323,0 -1.28695,0.4536l-4.21951,7.3103c-0.26372,0.4536 -0.14768,1.02323 0.25317,1.35024l4.45158,3.49164c-0.08439,0.67512 -0.14768,1.36079 -0.14768,2.05701s0.06329,1.38189 0.14768,2.05701l-4.45158,3.49164c-0.40085,0.31646 -0.51689,0.8861 -0.25317,1.35024l4.21951,7.3103c0.26372,0.4536 0.81226,0.64348 1.28695,0.4536l5.25329,-2.1203c1.08652,0.83335 2.27854,1.54012 3.56549,2.07811l0.79116,5.59085c0.08439,0.49579 0.51689,0.8861 1.04433,0.8861l8.43902,0c0.52744,0 0.95994,-0.3903 1.04433,-0.8861l0.79116,-5.59085c1.28695,-0.53799 2.47896,-1.23421 3.56549,-2.07811l5.25329,2.1203c0.47469,0.17933 1.02323,0 1.28695,-0.4536l4.21951,-7.3103c0.26372,-0.4536 0.14768,-1.02323 -0.25317,-1.35024l-4.45158,-3.49164z"/>
 </g>
 <g class="layer">
  <title>Layer 1</title>
  <path stroke="#000000" stroke-width="2" fill-opacity="0" fill="#000000" id="svg_1" d="m38.86,25.95c0.08,-0.64 0.14,-1.29 0.14,-1.95s-0.06,-1.31 -0.14,-1.95l4.23,-3.31c0.38,-0.3 0.49,-0.84 0.24,-1.28l-4,-6.93c-0.25,-0.43 -0.77,-0.61 -1.22,-0.43l-4.98,2.01c-1.03,-0.79 -2.16,-1.46 -3.38,-1.97l-0.75,-5.3c-0.09,-0.47 -0.5,-0.84 -1,-0.84l-8,0c-0.5,0 -0.91,0.37 -0.99,0.84l-0.75,5.3c-1.22,0.51 -2.35,1.17 -3.38,1.97l-4.98,-2.01c-0.45,-0.17 -0.97,0 -1.22,0.43l-4,6.93c-0.25,0.43 -0.14,0.97 0.24,1.28l4.22,3.31c-0.08,0.64 -0.14,1.29 -0.14,1.95s0.06,1.31 0.14,1.95l-4.22,3.31c-0.38,0.3 -0.49,0.84 -0.24,1.28l4,6.93c0.25,0.43 0.77,0.61 1.22,0.43l4.98,-2.01c1.03,0.79 2.16,1.46 3.38,1.97l0.75,5.3c0.08,0.47 0.49,0.84 0.99,0.84l8,0c0.5,0 0.91,-0.37 0.99,-0.84l0.75,-5.3c1.22,-0.51 2.35,-1.17 3.38,-1.97l4.98,2.01c0.45,0.17 0.97,0 1.22,-0.43l4,-6.93c0.25,-0.43 0.14,-0.97 -0.24,-1.28l-4.22,-3.31zm-14.86,5.05c-3.87,0 -7,-3.13 -7,-7s3.13,-7 7,-7s7,3.13 7,7s-3.13,7 -7,7z"/>
 </g>
</svg>
