<svg width="48.00000000000001" height="48.00000000000001" xmlns="http://www.w3.org/2000/svg" xmlns:svg="http://www.w3.org/2000/svg">
 <g class="layer">
  <title>图层 2</title>
  <path d="m39.54248,4.13123l-9.33209,0c-0.91425,-2.58667 -3.36713,-4.45978 -6.27714,-4.45978s-5.36288,1.87311 -6.27714,4.45978l-9.33209,0c-2.46403,0 -4.45978,1.99575 -4.45978,4.45978l0,31.21844c0,2.46403 1.99575,4.45978 4.45978,4.45978l31.21844,0c2.46403,0 4.45978,-1.99575 4.45978,-4.45978l0,-31.21844c0,-2.46403 -1.99575,-4.45978 -4.45978,-4.45978l0.00002,0z" id="svg_2" fill="#ffffff"/>
 </g>
 <g class="layer">
  <title>Layer 1</title>
  <path d="m38,6l-8.37,0c-0.82,-2.32 -3.02,-4 -5.63,-4s-4.81,1.68 -5.63,4l-8.37,0c-2.21,0 -4,1.79 -4,4l0,28c0,2.21 1.79,4 4,4l28,0c2.21,0 4,-1.79 4,-4l0,-28c0,-2.21 -1.79,-4 -4,-4zm-14,0c1.1,0 2,0.89 2,2s-0.9,2 -2,2s-2,-0.89 -2,-2s0.9,-2 2,-2zm4,28l-14,0l0,-4l14,0l0,4zm6,-8l-20,0l0,-4l20,0l0,4zm0,-8l-20,0l0,-4l20,0l0,4z" id="svg_1" stroke-width="2" fill="none" stroke="#010101"/>
 </g>
</svg>
